<svg width="16" height="16" viewBox="0 0 16 16" fill="none" xmlns="http://www.w3.org/2000/svg">
<rect width="16" height="16" rx="3" fill="white"/>
<path d="M11.5833 4.40391C10.7257 3.52103 9.54008 3.04175 8.32926 3.04175C5.75629 3.04175 3.68782 5.13544 3.71305 7.68319C3.71305 8.4904 3.94008 9.27238 4.31845 9.97868L3.6626 12.3751L6.10944 11.7445C6.79053 12.1228 7.54728 12.2994 8.30404 12.2994C10.8518 12.2994 12.9203 10.2057 12.9203 7.65796C12.9203 6.42193 12.441 5.26157 11.5833 4.40391ZM8.32926 11.5174C7.64818 11.5174 6.9671 11.3408 6.38692 10.9877L6.23557 10.912L4.77251 11.2904L5.15089 9.85256L5.04999 9.70121C3.94008 7.91022 4.46981 5.53905 6.28602 4.42914C8.10224 3.31923 10.4482 3.84896 11.5581 5.66517C12.668 7.48139 12.1383 9.82733 10.3221 10.9372C9.74188 11.3156 9.03557 11.5174 8.32926 11.5174ZM10.5491 8.71742L10.2716 8.5913C10.2716 8.5913 9.868 8.41472 9.61575 8.28859C9.59053 8.28859 9.5653 8.26337 9.54008 8.26337C9.4644 8.26337 9.41395 8.28859 9.3635 8.31382C9.3635 8.31382 9.33827 8.33905 8.98512 8.74265C8.9599 8.7931 8.90945 8.81832 8.85899 8.81832H8.83377C8.80854 8.81832 8.75809 8.7931 8.73287 8.76787L8.60674 8.71742C8.32927 8.5913 8.07701 8.43995 7.87521 8.23814C7.82476 8.18769 7.74908 8.13724 7.69863 8.08679C7.52206 7.91022 7.34548 7.70842 7.21936 7.48139L7.19413 7.43094C7.1689 7.40571 7.1689 7.38049 7.14368 7.33004C7.14368 7.27959 7.14368 7.22914 7.1689 7.20391C7.1689 7.20391 7.26981 7.07778 7.34548 7.00211C7.39593 6.95166 7.42116 6.87598 7.47161 6.82553C7.52206 6.74986 7.54728 6.64896 7.52206 6.57328C7.49683 6.44715 7.19413 5.76607 7.11845 5.61472C7.068 5.53905 7.01755 5.51382 6.94188 5.48859H6.8662C6.81575 5.48859 6.74008 5.48859 6.6644 5.48859C6.61395 5.48859 6.5635 5.51382 6.51305 5.51382L6.48782 5.53905C6.43737 5.56427 6.38692 5.61472 6.33647 5.63995C6.28602 5.6904 6.2608 5.74085 6.21035 5.7913C6.03377 6.01832 5.93287 6.2958 5.93287 6.57328C5.93287 6.77508 5.98332 6.97688 6.05899 7.15346L6.08422 7.22914C6.31125 7.70842 6.61395 8.13724 7.01755 8.51562L7.11845 8.61652C7.19413 8.6922 7.26981 8.74265 7.32026 8.81832C7.84999 9.27238 8.45539 9.60031 9.13647 9.77688C9.21215 9.80211 9.31305 9.80211 9.38872 9.82733C9.4644 9.82733 9.5653 9.82733 9.64098 9.82733C9.7671 9.82733 9.91846 9.77688 10.0194 9.72643C10.095 9.67598 10.1455 9.67598 10.1959 9.62553L10.2464 9.57508C10.2968 9.52463 10.3473 9.49941 10.3977 9.44896C10.4482 9.3985 10.4986 9.34805 10.5239 9.2976C10.5743 9.1967 10.5995 9.07058 10.6248 8.94445C10.6248 8.894 10.6248 8.81832 10.6248 8.76787C10.6248 8.76787 10.5995 8.74265 10.5491 8.71742Z" fill="#151027"/>
</svg>
