<svg width="16" height="16" viewBox="0 0 16 16" fill="none" xmlns="http://www.w3.org/2000/svg">
<rect width="16" height="16" rx="3" fill="white"/>
<rect width="16" height="16" rx="3" fill="white"/>
<path d="M3.59579 7.82373C5.92222 6.78884 7.47355 6.10657 8.24975 5.77693C10.466 4.83575 10.9265 4.67226 11.2267 4.6668C11.2927 4.66567 11.4403 4.68238 11.5359 4.76159C11.6166 4.82848 11.6388 4.91883 11.6495 4.98225C11.6601 5.04567 11.6733 5.19013 11.6628 5.30301C11.5427 6.59142 11.0231 9.71804 10.7587 11.1611C10.6468 11.7717 10.4265 11.9764 10.2133 11.9964C9.74986 12.04 9.39795 11.6837 8.94909 11.3833C8.24671 10.9132 7.84992 10.6206 7.16814 10.1619C6.38023 9.63174 6.891 9.34037 7.34003 8.86418C7.45754 8.73956 9.49944 6.84326 9.53896 6.67124C9.54391 6.64972 9.54849 6.56953 9.50183 6.52718C9.45517 6.48483 9.3863 6.49931 9.3366 6.51083C9.26615 6.52716 8.1441 7.28438 5.97044 8.7825C5.65195 9.0058 5.36347 9.1146 5.105 9.1089C4.82006 9.10261 4.27195 8.9444 3.86449 8.80917C3.36472 8.6433 2.96751 8.5556 3.0021 8.2739C3.02012 8.12717 3.21801 7.97712 3.59579 7.82373Z" fill="#151027"/>
</svg>
