<svg width="16" height="16" viewBox="0 0 16 16" fill="none" xmlns="http://www.w3.org/2000/svg">
<rect width="16" height="16" rx="2" fill="white"/>
<path d="M12.4419 11.7751C11.9169 11.7626 11.4044 11.7626 10.8794 11.7751C10.7669 11.7751 10.7419 11.7501 10.7419 11.6376C10.7419 10.7126 10.7419 9.77511 10.7419 8.85011C10.7419 8.63761 10.7294 8.42511 10.6669 8.22511C10.4794 7.57511 9.72939 7.33761 9.19189 7.77511C8.90439 8.00011 8.79189 8.31261 8.79189 8.68761C8.79189 9.56261 8.79189 10.4376 8.79189 11.3126C8.79189 11.4251 8.77939 11.5376 8.79189 11.6626C8.80439 11.7626 8.75439 11.7876 8.66689 11.7751C8.12939 11.7751 7.60439 11.7751 7.06689 11.7751C6.96689 11.7751 6.94189 11.7501 6.94189 11.6501C6.95439 10.8626 6.95439 10.0751 6.95439 9.27511C6.95439 8.30011 6.95439 7.32511 6.94189 6.36261C6.94189 6.25011 6.96689 6.22511 7.06689 6.22511C7.60439 6.22511 8.12939 6.22511 8.66689 6.22511C8.76689 6.22511 8.79189 6.25011 8.79189 6.35011C8.79189 6.55011 8.79189 6.75011 8.79189 6.98761C8.82939 6.95011 8.84189 6.93761 8.85439 6.92511C9.34189 6.21261 10.0294 6.01261 10.8419 6.13761C11.7794 6.28761 12.3794 6.93761 12.5294 7.93761C12.5669 8.17511 12.5794 8.41261 12.5794 8.65011C12.5794 9.65011 12.5794 10.6376 12.5794 11.6376C12.5794 11.7376 12.5544 11.7751 12.4419 11.7751Z" fill="#151027"/>
<path d="M5.94199 9.0001C5.94199 9.8751 5.94199 10.7501 5.94199 11.6251C5.94199 11.7376 5.91699 11.7751 5.80449 11.7751C5.27949 11.7626 4.75449 11.7751 4.22949 11.7751C4.12949 11.7751 4.10449 11.7501 4.10449 11.6501C4.10449 9.8876 4.10449 8.1126 4.10449 6.3501C4.10449 6.2626 4.12949 6.2251 4.22949 6.2251C4.76699 6.2251 5.30449 6.2251 5.84199 6.2251C5.95449 6.2251 5.96699 6.2626 5.96699 6.3626C5.94199 7.2376 5.94199 8.1126 5.94199 9.0001Z" fill="#151027"/>
<path d="M6.02931 4.77501C5.90431 5.27501 5.39181 5.56251 4.80431 5.46251C4.17931 5.36251 3.82931 4.75001 4.05431 4.15001C4.20431 3.77501 4.56681 3.55001 5.02931 3.56251C5.72931 3.55001 6.19181 4.11251 6.02931 4.77501Z" fill="#151027"/>
</svg>
